PathFileType	4	(X/Y/Z)	21_coords_data.trc
DataRate	CameraRate	NumFrames	NumMarkers	Units	OrigDataRate	OrigDataStartFrame	OrigNumFrames
30.0	30.0	5	21	m	30.0	41	60
Frame#	Time	THUMB_TIP	THUMB_IP	THUMB_MCP	THUMB_CMC	INDEX_TIP	INDEX_DIP	INDEX_PIP	INDEX_MCP	MIDDLE_TIP	MIDDLE_DIP	MIDDLE_PIP	MIDDLE_MCP	RING_TIP	RING_DIP	RING_PIP	RING_MCP	PINKY_TIP	PINKY_DIP	PINKY_PIP	PINKY_MCP	WRIST
X1	Y1	Z1	X2	Y2	Z2	X3	Y3	Z3	X4	Y4	Z4	X5	Y5	Z5	X6	Y6	Z6	X7	Y7	Z7	X8	Y8	Z8	X9	Y9	Z9	X10	Y10	Z10	X11	Y11	Z11	X12	Y12	Z12	X13	Y13	Z13	X14	Y14	Z14	X15	Y15	Z15	X16	Y16	Z16	X17	Y17	Z17	X18	Y18	Z18	X19	Y19	Z19	X20	Y20	Z20	X21	Y21	Z21
40	1.3333333333333333	-0.015853500366210936	-0.017210500717163086	0.911718017578125	-0.026125200271606447	0.001274289965629577	0.9325050048828125	-0.040333698272705075	0.018559799194335938	0.9567689819335937	-0.05459289932250976	0.0462333984375	0.9774439697265624	0.02210099983215332	0.05278070068359375	0.8613519897460937	0.001932209968566894	0.05027119827270508	0.8733179931640624	-0.018903600692749024	0.04822299957275391	0.885875	-0.04837580108642578	0.04738190078735351	0.9174949951171875	0.019893299102783202	0.0868196029663086	0.8596939697265625	-0.0021562199592590333	0.08174549865722656	0.8685050048828125	-0.028316200256347655	0.07683670043945312	0.8813380126953125	-0.05503250122070313	0.07031459808349609	0.917291015625	0.011645000457763672	0.10827899932861328	0.8668989868164062	-0.009063340187072754	0.10344300079345703	0.8779450073242188	-0.032552299499511717	0.09770210266113281	0.891926025390625	-0.0568385009765625	0.08948660278320313	0.9244210205078125	-0.006085879802703857	0.12612000274658203	0.8869500122070313	-0.022175899505615236	0.1213489990234375	0.8994929809570312	-0.036317798614501955	0.1157030029296875	0.9118250122070313	-0.053899101257324215	0.10568900299072266	0.93510400390625	-0.08573619842529297	0.06443930053710938	0.9994630126953125
41	1.3666666666666667	-0.014750800132751464	-0.015724599838256834	0.9118350219726562	-0.025421100616455077	0.002298099994659424	0.9325540161132813	-0.03993170166015625	0.019414600372314454	0.9567379760742187	-0.05444950103759766	0.046957698822021485	0.9774290161132813	0.019824499130249022	0.053671199798583986	0.8581640014648437	0.0003275009989738461	0.051171398162841795	0.8714910278320313	-0.01982670021057129	0.04912110137939453	0.885052001953125	-0.0483385009765625	0.04812749862670898	0.9172559814453125	0.018743499755859375	0.08816840362548828	0.8573720092773438	-0.00309033989906311	0.08289440155029297	0.8674229736328125	-0.02858799934387207	0.07771690368652344	0.8810859985351562	-0.055050800323486325	0.07105709838867187	0.91710400390625	0.010800100326538086	0.10962999725341797	0.8658590087890625	-0.009717359542846679	0.10461699676513672	0.877614990234375	-0.03288069915771484	0.09859980010986329	0.8919910278320312	-0.056817100524902346	0.0901875	0.924416015625	-0.006862919807434082	0.12727999877929688	0.8864650268554688	-0.022555500030517577	0.12235299682617187	0.8994169921875	-0.03640850067138672	0.11654399871826172	0.9118060302734375	-0.0539552001953125	0.10636699676513672	0.9349940185546874	-0.08570429992675781	0.0648468017578125	0.999489990234375
42	1.4	-0.014348699569702148	-0.01482509994506836	0.9114320068359375	-0.025117399215698243	0.003252259969711303	0.9322080078125	-0.03999069976806641	0.020109199523925782	0.9566229858398437	-0.05464509963989258	0.047495201110839845	0.9772650146484375	0.01905509948730469	0.05488230133056641	0.8575889892578125	-0.00044049900770187306	0.052209701538085934	0.8709860229492188	-0.02054439926147461	0.05006430053710938	0.884552978515625	-0.048719898223876956	0.04876979827880859	0.9170460205078125	0.018045900344848632	0.08919180297851563	0.857447998046875	-0.003560400009155273	0.08379080200195313	0.8672969970703125	-0.029287200927734375	0.07846410369873047	0.880656982421875	-0.055570899963378904	0.07168389892578125	0.9169990234375	0.01051949977874756	0.11035600280761719	0.8659520263671875	-0.009903260231018066	0.10523899841308594	0.877426025390625	-0.03324349975585938	0.09928559875488281	0.89181298828125	-0.05727109909057617	0.09081079864501954	0.9244769897460937	-0.007072410106658935	0.1280800018310547	0.886676025390625	-0.02301169967651367	0.12306800079345703	0.8993779907226562	-0.0368931999206543	0.11724099731445313	0.9118839721679688	-0.05441379928588867	0.10695099639892579	0.9349860229492187	-0.0858655014038086	0.06521800231933594	0.9994089965820312
43	1.4333333333333333	-0.014096099853515625	-0.013536999702453614	0.9109520263671875	-0.025133600234985353	0.004194409847259521	0.9318720092773437	-0.04002239990234375	0.020786300659179687	0.955927001953125	-0.05484659957885742	0.04792100143432617	0.9769229736328126	0.018869499206542968	0.056441600799560544	0.8577830200195312	-0.000745253026485443	0.05357709884643555	0.8708350219726563	-0.020842599868774413	0.05118830108642578	0.884343017578125	-0.049334800720214844	0.049497100830078126	0.9170180053710938	0.017528499603271484	0.09043360137939453	0.8574940185546875	-0.003962510108947754	0.08492350006103516	0.8671790161132813	-0.029893299102783204	0.07952230072021485	0.8804819946289062	-0.055943401336669925	0.07244499969482422	0.9169710083007813	0.010075499534606933	0.1112229995727539	0.865948974609375	-0.010417900085449218	0.10610399627685548	0.8774819946289063	-0.033716899871826175	0.10009500122070313	0.8917930297851563	-0.05771369934082031	0.09152030181884765	0.9244190063476563	-0.00740162992477417	0.12888099670410155	0.8867440185546875	-0.023205099105834962	0.12384600067138672	0.8996220092773437	-0.037225299835205075	0.1179739990234375	0.9119619750976562	-0.05480609893798828	0.10756900024414062	0.9352130126953125	-0.08583339691162109	0.06561530303955078	0.9990780029296875
44	1.4666666666666666	-0.013367300033569335	-0.011835000038146973	0.9101409912109375	-0.024752099990844725	0.005623390197753906	0.9313060302734375	-0.039900299072265624	0.021884199142456054	0.9556229858398437	-0.054818401336669924	0.04871329879760742	0.9767000122070313	0.017961599349975585	0.058131198883056644	0.8567160034179687	-0.001455289959907531	0.055076499938964844	0.8701090087890625	-0.021626600265502928	0.052511100769042966	0.8837360229492187	-0.04947000122070312	0.05046060180664062	0.9165269775390625	0.01665519905090332	0.09217780303955078	0.8569019775390625	-0.004775259971618652	0.086435302734375	0.8667319946289063	-0.030308099746704103	0.08080549621582031	0.8802069702148437	-0.056333999633789066	0.07338629913330078	0.9164929809570312	0.009321269989013671	0.11273799896240234	0.8657059936523438	-0.011181099891662598	0.10743299865722657	0.8771010131835938	-0.03436569976806641	0.10132399749755859	0.89160302734375	-0.058159698486328126	0.09235649871826172	0.9243270263671876	-0.008106650352478028	0.13026199340820313	0.8868629760742187	-0.024007099151611328	0.1250459976196289	0.8996060180664063	-0.03788190078735352	0.1189990005493164	0.9120609741210938	-0.05523740005493164	0.10834500122070312	0.9351589965820313	-0.08635140228271485	0.06590519714355468	0.9989450073242188
